# xmcd CD database file
#
# Track frame offsets:
#	150
#	21065
#	38915
#	58510
#	77275
#	99543
#	116205
#	134240
#	153185
#	168710
#
# Disc length: 2503 seconds
#
# Revision: 0
# Processed by: cddbd v1.5PL3 Copyright (c) Steve Scherf et al.
# Submitted via: CDex 1.51
#
DISCID=7f09c50a
DTITLE=八神純子 - ロンリー・ガール
DYEAR=1900
DGENRE=JPop
TTITLE0=LONELY GIRL
TTITLE1=夜空のイヤリング
TTITLE2=鼓動のララバイ
TTITLE3=Touch you, tonight
TTITLE4=燃えつきるまで
TTITLE5=AND I LOVE YOU
TTITLE6=ジェラス
TTITLE7=ラブ・シュープリーム 〜至上の愛〜
TTITLE8=You and I
TTITLE9=Falling for you
EXTD=
EXTT0=
EXTT1=
EXTT2=
EXTT3=
EXTT4=
EXTT5=
EXTT6=
EXTT7=
EXTT8=
EXTT9=
PLAYORDER=
